<svg fill="none" height="92" viewBox="0 0 92 92" width="92" xmlns="http://www.w3.org/2000/svg"><path clip-rule="evenodd" d="m45.7948 22.9883c-12.5973 0-22.9042 10.316-22.9042 22.9245s10.3069 22.9246 22.9042 22.9246 22.9042-10.3161 22.9042-22.9246-10.1924-22.9245-22.9042-22.9245zm10.5359 33.1259c-.458.6878-1.2597.917-1.9468.4585-5.3825-3.324-12.1392-4.0118-20.1557-2.1778-.8017.2293-1.4888-.3439-1.7178-1.0316-.2291-.8024.3435-1.4901 1.0307-1.7193 8.7036-1.9486 16.2619-1.1463 22.217 2.5217.8017.3438.9162 1.2608.5726 1.9485zm2.7485-6.3042c-.5726.8024-1.6033 1.1462-2.4049.5731-6.1841-3.7825-15.5748-4.9288-22.7897-2.6363-.9161.2292-1.9468-.2293-2.1759-1.1462-.229-.917.2291-1.9486 1.1452-2.1779 8.3601-2.5217 18.667-1.2608 25.7673 3.0948.6871.3439 1.0306 1.4901.458 2.2925zm.2291-6.4189c-7.3294-4.3556-19.5831-4.8141-26.5689-2.6363-1.1452.3439-2.2904-.3439-2.634-1.3755-.3435-1.1462.3436-2.2924 1.3743-2.6363 8.131-2.4071 21.5299-1.9486 30.0045 3.0948 1.0307.5731 1.3742 1.9486.8016 2.9802-.5726.8024-1.9468 1.1462-2.9775.5731z" fill="#fff" fill-rule="evenodd"/></svg>